<?xml version="1.0" encoding="utf-8"?>
<!-- Generator: Adobe Illustrator 26.0.1, SVG Export Plug-In . SVG Version: 6.00 Build 0)  -->
<svg version="1.1" id="Layer_1" xmlns="http://www.w3.org/2000/svg" xmlns:xlink="http://www.w3.org/1999/xlink" x="0px" y="0px"
	 viewBox="0 0 4000 4000" style="enable-background:new 0 0 4000 4000;" xml:space="preserve">
<style type="text/css">
	.st0{fill:url(#SVGID_1_);}
	.st1{fill:url(#SVGID_00000023263965181725466750000001418213374625717932_);}
</style>
<g>
	<linearGradient id="SVGID_1_" gradientUnits="userSpaceOnUse" x1="1400.2987" y1="1326.3058" x2="2572.8215" y2="2434.9465">
		<stop  offset="0" style="stop-color:#319CDD"/>
		<stop  offset="1" style="stop-color:#07549B"/>
	</linearGradient>
	<polygon class="st0" points="2235.11,1901.39 2455.04,2537.82 2115.87,1961.81 	"/>
	
		<linearGradient id="SVGID_00000111188202275702425730000012554022695954237088_" gradientUnits="userSpaceOnUse" x1="3294.0051" y1="1192.3899" x2="270.9425" y2="2615.3025">
		<stop  offset="0" style="stop-color:#319CDD"/>
		<stop  offset="1" style="stop-color:#07549B"/>
	</linearGradient>
	<path style="fill:url(#SVGID_00000111188202275702425730000012554022695954237088_);" d="M2764.66,1646.08
		c0,0-86.26-166.54-479.71-15.92c0,0-51.15,21.18-127.63,57.9l-204.65-511.02c-20.27-54.14-72.02-90.02-129.83-90.02l0,0
		c-59.04,0-111.6,37.39-130.96,93.17l-487.02,1365.54c-65.26,154.68,20.65,234.45,20.65,234.45
		c238.07,171.6,820.03-206.37,820.03-206.37l-30.15-41.97c-21.56,10.78-486.11,292.1-631.62,174.61
		c-94.29-76.13,121.8-331.98,121.8-331.98l0.03-0.43c175.54-164.44,678.44-606.65,1036.99-633.29c0,0,143.89-12.28,121.61,113.29
		c0,0-0.51,118.48-230.38,360.51l22.32,45.94C2456.13,2260.49,2876.79,1874.33,2764.66,1646.08z M1586.24,2064.96l225.4-496.89
		c5.84-12.88,18.68-21.15,32.82-21.15c12.41,0,23.95,6.38,30.54,16.9l127.47,203.38
		C1858.28,1845.68,1691.56,1951.04,1586.24,2064.96z"/>
</g>
</svg>
