<svg version="1.1" id="Layer_1" xmlns="http://www.w3.org/2000/svg" xmlns:xlink="http://www.w3.org/1999/xlink" x="0px" y="0px"
	 width="100%" viewBox="0 0 200 200" enable-background="new 0 0 200 200" xml:space="preserve">
<path fill="#34D785" opacity="1.000000" stroke="none" 
	d="
M113.480804,28.476198 
	C119.747505,43.191174 125.840515,57.564739 132.159103,72.470451 
	C152.123337,63.077209 171.676453,53.877399 191.229584,44.677586 
	C191.449142,45.075909 191.668701,45.474232 191.888260,45.872555 
	C131.542435,90.731285 71.196625,135.590012 10.036240,181.054260 
	C9.509302,178.052292 9.067535,175.900436 8.761665,173.729416 
	C7.484739,164.666016 6.433186,155.565765 4.912029,146.544250 
	C4.249737,142.616409 5.380487,140.692184 8.919554,138.808731 
	C38.739628,122.938843 68.382812,106.736237 98.225769,90.910080 
	C102.727348,88.522820 103.768860,86.436836 101.427872,81.809937 
	C98.532417,76.087120 96.420784,69.967743 93.538155,62.970207 
	C90.731430,69.745613 88.489395,75.458405 85.974258,81.048309 
	C85.208221,82.750801 84.008026,84.689362 82.465927,85.543381 
	C69.510956,92.717834 56.432026,99.668571 43.378696,106.664787 
	C42.966148,106.885902 42.427158,106.871101 41.399696,107.074829 
	C41.647732,106.138016 41.742287,105.453941 42.003605,104.840950 
	C53.355015,78.213516 64.774384,51.614777 76.013390,24.940041 
	C77.312141,21.857574 78.856560,20.609316 82.263329,20.750715 
	C88.914368,21.026768 95.628868,21.304703 102.234711,20.692669 
	C108.392555,20.122135 112.116592,21.920689 113.480804,28.476198 
z"/>
<path fill="#33D685" opacity="1.000000" stroke="none" 
	d="
M175.765106,178.206451 
	C164.697342,167.179535 153.743332,156.035248 142.525513,145.163147 
	C133.695312,136.605072 124.539787,128.382629 114.780724,119.316162 
	C125.192459,111.723625 133.851913,105.408890 143.203705,98.589294 
	C154.407410,124.964523 165.415802,150.879944 176.307587,177.324753 
	C176.049026,177.971573 175.907059,178.089005 175.765106,178.206451 
z"/>
<path fill="#33D685" opacity="1.000000" stroke="none" 
	d="
M176.405334,177.679718 
	C176.635391,178.178604 176.651077,178.851898 176.666779,179.525192 
	C176.401077,179.276108 176.135361,179.027008 175.817383,178.492188 
	C175.907059,178.089005 176.049026,177.971573 176.405334,177.679718 
z"/>
</svg>